<svg xmlns="http://www.w3.org/2000/svg" viewBox="-509 276 180 50"><g fill="#FFF"><path d="M-436.5 315.6c0-.3-.1-.6-.4-.8-.2-.2-.7-.4-1.3-.5-.7-.2-1.3-.4-1.7-.8-.4-.3-.6-.8-.6-1.3s.2-1 .7-1.3c.4-.4 1-.5 1.7-.5.8 0 1.3.2 1.8.6s.7.9.6 1.4h-.9c0-.4-.1-.7-.4-1s-.6-.4-1.1-.4c-.5 0-.8.1-1.1.3-.2.2-.4.5-.4.8 0 .3.1.5.4.7.3.2.7.4 1.3.5.7.2 1.3.4 1.7.8.4.3.6.8.6 1.3 0 .6-.2 1-.7 1.3-.5.3-1 .5-1.8.5-.7 0-1.3-.2-1.8-.6-.5-.4-.8-.9-.8-1.5h.9c0 .4.2.8.5 1 .3.2.7.3 1.2.3s.8-.1 1.1-.3c.4.1.5-.1.5-.5zM-426.1 314.5c0 .8-.3 1.5-.8 2.1s-1.2.8-2 .8-1.5-.3-2-.8-.8-1.2-.8-2.1v-1.2c0-.8.3-1.5.8-2.1s1.2-.8 2-.8 1.5.3 2 .8.8 1.3.8 2.1v1.2zm-.9-1.2c0-.6-.2-1.1-.5-1.5-.3-.4-.8-.6-1.4-.6-.5 0-1 .2-1.3.6-.3.4-.5.9-.5 1.5v1.2c0 .6.2 1.2.5 1.6.3.4.8.6 1.3.6.6 0 1-.2 1.4-.6s.5-.9.5-1.6v-1.2zM-420.9 316.6h3.2v.7h-4.2v-6.9h.9v6.2zM-408.8 310.5v4.7c0 .7-.2 1.3-.7 1.7s-1.1.6-1.9.6c-.8 0-1.4-.2-1.8-.6-.5-.4-.7-1-.7-1.7v-4.7h.9v4.7c0 .5.1.9.4 1.2.3.3.7.4 1.2.4s.9-.1 1.2-.4c.3-.3.5-.7.5-1.2v-4.7h.9zM-399.7 311.2h-2.2v6.1h-.9v-6.1h-2.2v-.7h5.3v.7zM-394.9 317.4h-.9v-6.9h.9v6.9zM-385 314.5c0 .8-.3 1.5-.8 2.1-.5.6-1.2.8-2 .8s-1.5-.3-2-.8c-.5-.6-.8-1.2-.8-2.1v-1.2c0-.8.3-1.5.8-2.1.5-.6 1.2-.8 2-.8s1.5.3 2 .8c.5.6.8 1.3.8 2.1v1.2zm-.9-1.2c0-.6-.2-1.1-.5-1.5-.3-.4-.8-.6-1.4-.6-.5 0-1 .2-1.3.6-.3.4-.5.9-.5 1.5v1.2c0 .6.2 1.2.5 1.6.3.4.8.6 1.3.6.6 0 1-.2 1.4-.6.3-.4.5-.9.5-1.6v-1.2zM-375.5 317.4h-.9l-3.3-5.3v5.3h-.9v-6.9h.9l3.3 5.3v-5.3h.9v6.9zM-367.2 315.6c0-.3-.1-.6-.4-.8-.2-.2-.7-.4-1.3-.5-.7-.2-1.3-.4-1.7-.8-.4-.3-.6-.8-.6-1.3s.2-1 .7-1.3 1-.5 1.7-.5c.8 0 1.3.2 1.8.6s.7.9.6 1.4h-.9c0-.4-.1-.7-.4-1s-.6-.4-1.1-.4c-.5 0-.8.1-1.1.3s-.4.5-.4.8c0 .3.1.5.4.7.3.2.7.4 1.3.5.7.2 1.3.4 1.7.8.4.3.6.8.6 1.3 0 .6-.2 1-.7 1.3-.5.3-1 .5-1.8.5-.7 0-1.3-.2-1.8-.6-.5-.4-.8-.9-.8-1.5h.9c0 .4.2.8.5 1 .3.2.7.3 1.2.3s.8-.1 1.1-.3c.4.1.5-.1.5-.5z"/><g><path d="M-507.5 325.2c9.2-3.6 19.3-5.5 29.8-5.5 7.5 0 14.7 1 21.6 2.9.4.1.9.2 1.3.4 2.3.7 4.6 1.5 6.9 2.3-3.8-5.9-8.6-11.1-14.1-15.3-8.4-6.5-18.6-10.8-29.6-12.2-2.5-.3-5.1-.5-7.7-.5-2.5 0-4.9.1-7.3.4h2.3c4.2 0 8.2.4 12.1 1.2l-15.3 26.3m32.8-46.8c-.6-1-1.7-1.6-3-1.6-.9 0-1.7.3-2.3.8-.3.3-.6.6-.8 1l-2.1 3.6-6.5 11.3c.9 0 1.8-.1 2.7-.1 6.3 0 12.4 1 18.2 2.7 1.7.5 3.4 1.1 5 1.8"/><path d="M-447.9 325.2c-2.2-.9-4.5-1.6-6.9-2.3-.9-1.2-1.8-2.4-2.8-3.6-8.8-10.4-20.9-17.8-34.7-20.5-3.9-.8-8-1.2-12.1-1.2h-2.3c2.4-.3 4.8-.4 7.3-.4 2.6 0 5.2.2 7.7.5 11.1 1.4 21.2 5.7 29.6 12.2 5.6 4.3 10.4 9.4 14.2 15.3zM-463.5 298.1c-1.6-.7-2.8-1.1-4.5-1.6l-6.8-13.7-1.5-3v-.1c-.5-1.2-1.8-2.1-3.2-2.1h-.4c.6-.5 1.4-.8 2.3-.8 1.3 0 2.4.7 3 1.6l.1.2 11 19.5z"/><g><path d="M-430.4 295.3h-4v11.4h-2.2v-11.4h-4v-1.8h10.2v1.8zM-418.4 306.7h-2.2v-5.6h-5.9v5.6h-2.2v-13.2h2.2v5.8h5.9v-5.8h2.2v13.2zM-407.5 300.8h-5.8v4.2h6.7v1.8h-8.9v-13.2h8.8v1.8h-6.6v3.7h5.8v1.7zM-392.9 303.6h-5.2l-1.1 3.1h-2.2l4.9-13.2h2.1l4.8 13.2h-2.2l-1.1-3.1zm-4.5-1.8h3.9l-1.9-5.6h-.1l-1.9 5.6zM-385.9 301.7v5h-2.2v-13.2h5.2c1.5 0 2.6.4 3.4 1.1s1.2 1.7 1.2 3c0 1.2-.4 2.2-1.2 3s-2 1.1-3.4 1.1h-3zm0-1.8h3c.8 0 1.4-.2 1.8-.7.4-.4.6-1 .6-1.7s-.2-1.2-.6-1.7c-.4-.4-1-.7-1.8-.7h-3v4.8zM-373.9 301.7v5h-2.2v-13.2h5.2c1.5 0 2.6.4 3.4 1.1s1.2 1.7 1.2 3c0 1.2-.4 2.2-1.2 3s-2 1.1-3.4 1.1h-3zm0-1.8h3c.8 0 1.4-.2 1.8-.7.4-.4.6-1 .6-1.7s-.2-1.2-.6-1.7c-.4-.4-1-.7-1.8-.7h-3v4.8z"/></g></g></g></svg>