<svg xmlns="http://www.w3.org/2000/svg" viewBox="-534 283 130 36"><g fill="#D95A5A"><path d="M-480.9 312c0-.2-.1-.4-.3-.6-.2-.2-.5-.3-.9-.4-.5-.1-1-.3-1.3-.6-.3-.3-.5-.6-.5-1s.2-.7.5-1 .8-.4 1.3-.4c.6 0 1 .2 1.3.5.3.3.5.7.5 1.1h-.7c0-.3-.1-.5-.3-.7-.2-.2-.5-.3-.9-.3-.3 0-.6.1-.8.2-.2.2-.3.4-.3.6 0 .2.1.4.3.6.2.1.5.3 1 .4.5.1 1 .3 1.2.6.3.3.4.6.4 1s-.2.7-.5 1c-.3.3-.8.4-1.3.4s-1-.1-1.4-.4c-.4-.3-.6-.7-.6-1.1h.7c0 .3.1.6.4.8.2.2.5.3.9.3s.6-.1.8-.2c.4-.3.5-.5.5-.8zM-473.1 311.2c0 .6-.2 1.1-.6 1.6-.4.4-.9.6-1.5.6s-1.1-.2-1.5-.6c-.4-.4-.6-.9-.6-1.6v-.9c0-.6.2-1.1.6-1.6.4-.4.9-.6 1.5-.6s1.1.2 1.5.6c.4.4.6.9.6 1.6v.9zm-.7-.9c0-.5-.1-.9-.4-1.2-.3-.3-.6-.5-1-.5s-.7.2-1 .5c-.2.3-.4.7-.4 1.2v.9c0 .5.1.9.4 1.2.2.3.6.5 1 .5s.8-.1 1-.4.4-.7.4-1.2v-1zM-469.2 312.8h2.4v.5h-3.1v-5.1h.7v4.6zM-460.2 308.2v3.5c0 .6-.2 1-.5 1.3-.4.3-.8.4-1.4.4-.6 0-1-.1-1.4-.4-.4-.3-.5-.7-.5-1.3v-3.5h.7v3.5c0 .4.1.7.3.9.2.2.5.3.9.3s.7-.1.9-.3c.2-.2.4-.5.4-.9v-3.5h.6zM-453.4 308.7h-1.7v4.6h-.7v-4.6h-1.6v-.5h4v.5zM-449.8 313.3h-.7v-5.1h.7v5.1zM-442.4 311.2c0 .6-.2 1.1-.6 1.6-.4.4-.9.6-1.5.6s-1.1-.2-1.5-.6c-.4-.4-.6-.9-.6-1.6v-.9c0-.6.2-1.1.6-1.6.4-.4.9-.6 1.5-.6s1.1.2 1.5.6c.4.4.6.9.6 1.6v.9zm-.7-.9c0-.5-.1-.9-.4-1.2-.3-.3-.6-.5-1-.5s-.7.2-1 .5c-.2.3-.4.7-.4 1.2v.9c0 .5.1.9.4 1.2.2.3.6.5 1 .5s.8-.1 1-.4c.3-.3.4-.7.4-1.2v-1zM-435.3 313.3h-.7l-2.5-4v4h-.7v-5.1h.7l2.5 4v-4h.7v5.1zM-429.1 312c0-.2-.1-.4-.3-.6-.2-.2-.5-.3-.9-.4-.5-.1-1-.3-1.3-.6-.3-.3-.5-.6-.5-1s.2-.7.5-1c.3-.3.8-.4 1.3-.4.6 0 1 .2 1.3.5.3.3.5.7.5 1.1h-.7c0-.3-.1-.5-.3-.7-.2-.2-.5-.3-.9-.3-.3 0-.6.1-.8.2-.2.2-.3.4-.3.6 0 .2.1.4.3.6s.5.3 1 .4c.5.1 1 .3 1.2.6.3.3.4.6.4 1s-.2.7-.5 1c-.3.3-.8.4-1.3.4s-1-.1-1.4-.4c-.4-.3-.6-.7-.6-1.1h.7c0 .3.1.6.4.8.2.2.5.3.9.3s.6-.1.8-.2c.4-.3.5-.5.5-.8z"/></g><path fill="#F1706F" d="M-534 319.2c6.9-2.7 14.4-4.1 22.3-4.1 5.6 0 11 .7 16.2 2.1.3.1.6.2 1 .3 1.7.5 3.5 1.1 5.1 1.7-2.8-4.4-6.4-8.3-10.6-11.5-6.3-4.8-13.9-8.1-22.2-9.1-1.9-.2-3.8-.4-5.8-.4-1.8 0-3.7.1-5.4.3h1.7c3.1 0 6.1.3 9.1.9l-11.4 19.8m24.5-35c-.5-.7-1.3-1.2-2.2-1.2-.7 0-1.2.2-1.7.6-.2.2-.5.5-.6.7l-1.6 2.7-4.8 8.4h2c4.7 0 9.3.7 13.6 2 1.3.4 2.5.8 3.8 1.4"/><linearGradient id="a" gradientUnits="userSpaceOnUse" x1="-492.283" y1="312.829" x2="-503.887" y2="309.116"><stop offset="0" stop-color="#F1706F"/><stop offset=".552" stop-color="#E56565"/><stop offset="1" stop-color="#D85959"/></linearGradient><path fill="url(#a)" d="M-489.4 319.2c-1.7-.7-3.4-1.2-5.1-1.7l-2.1-2.7c-6.6-7.7-15.6-13.3-26-15.4-2.9-.6-6-.9-9.1-.9h-1.7c1.8-.2 3.6-.3 5.4-.3 2 0 3.9.1 5.8.4 8.3 1 15.9 4.3 22.2 9.1 4.1 3.2 7.7 7.1 10.6 11.5z"/><linearGradient id="b" gradientUnits="userSpaceOnUse" x1="-502.276" y1="296.757" x2="-510.021" y2="287.14"><stop offset="0" stop-color="#F1706F"/><stop offset=".552" stop-color="#E56565"/><stop offset="1" stop-color="#D85959"/></linearGradient><path fill="url(#b)" d="M-501.1 298.9c-1.2-.5-2.1-.8-3.4-1.2l-5.1-10.2-1.1-2.2v-.1c-.4-.9-1.3-1.6-2.4-1.6h-.3c.5-.4 1.1-.6 1.7-.6.9 0 1.8.5 2.2 1.2l.1.1 8.3 14.6z"/><g fill="#5C5D5E"><path d="M-476.3 296.8h-3v8.6h-1.6v-8.6h-3v-1.3h7.6v1.3zM-467.3 305.4h-1.6v-4.2h-4.4v4.2h-1.6v-9.9h1.6v4.3h4.4v-4.3h1.6v9.9zM-459.2 300.9h-4.3v3.1h5v1.3h-6.7v-9.9h6.6v1.3h-5v2.8h4.3v1.4zM-448.3 303.1h-3.9l-.8 2.3h-1.7l3.6-9.9h1.6l3.6 9.9h-1.7l-.7-2.3zm-3.4-1.4h2.9l-1.4-4.2-1.5 4.2zM-443 301.6v3.7h-1.6v-9.9h3.9c1.1 0 1.9.3 2.6.8.6.6.9 1.3.9 2.2 0 .9-.3 1.7-.9 2.2-.6.6-1.5.8-2.6.8h-2.3zm0-1.3h2.2c.6 0 1.1-.2 1.4-.5.3-.3.5-.7.5-1.2s-.2-.9-.5-1.3c-.3-.3-.8-.5-1.4-.5h-2.2v3.5zM-434.1 301.6v3.7h-1.6v-9.9h3.9c1.1 0 1.9.3 2.6.8.6.6.9 1.3.9 2.2 0 .9-.3 1.7-.9 2.2-.6.6-1.5.8-2.6.8h-2.3zm0-1.3h2.2c.6 0 1.1-.2 1.4-.5.3-.3.5-.7.5-1.2s-.2-.9-.5-1.3c-.3-.3-.8-.5-1.4-.5h-2.2v3.5z"/></g></svg>