<svg xmlns="http://www.w3.org/2000/svg" viewBox="0 0 112.196 112.196"><circle cx="56.098" cy="56.098" r="56.098" fill="#4176FA"/><path d="M76.21 46.34c-16.204 0-16.225 16.143-16.225 16.226 0 0-1.11 16.162 16.224 16.162 0 0 14.455.822 14.455-11.248h-7.423s.246 4.544-6.786 4.544c0 0-7.423.494-7.423-7.34h21.88S93.317 46.34 76.208 46.34zM68.95 59.03s.905-6.498 7.424-6.498c6.54 0 6.436 6.498 6.436 6.498H68.95zm-18.546-4.153s6.436-.473 6.436-8.04c0-7.546-5.264-11.248-11.947-11.248H22.91v42.256h21.98s13.43.412 13.43-12.48c0 0 .576-10.488-7.916-10.488zM32.596 43.092h12.296s2.982 0 2.982 4.4-1.748 5.038-3.743 5.038H32.597v-9.438zm11.68 27.246h-11.68v-11.31h12.296s4.463-.04 4.442 5.82c0 4.935-3.31 5.45-5.058 5.49zM67.12 38.075v5.203h17.438v-5.203H67.12z" fill="#F1F2F2"/></svg>